<svg width="100" height="100" fill="none" xmlns="http://www.w3.org/2000/svg"><path d="M63.675 7.39452c.7602.94297 1.1477 2.21562 1.9196 4.75778l16.9187 55.575c-6.3546-3.2981-13.1753-5.6072-20.2266-6.8476l-11.014-37.2235c-.087-.2975-.2681-.5588-.5163-.7446-.2481-.1858-.5499-.2861-.8599-.2857-.31.0003-.6115.1013-.8592.2876-.2478.1864-.4283.4481-.5146.7459L37.6406 60.8609c-7.082 1.2352-13.9331 3.548-20.3148 6.8578l16.9984-55.5781c.7782-2.53905 1.1657-3.80936 1.925-4.75233.6713-.83004 1.5434-1.47489 2.5336-1.87344 1.1196-.44922 2.45-.44922 5.1055-.44922h12.143c2.6578 0 3.9883 0 5.1117.45235.9909.39847 1.8622 1.0446 2.532 1.87656Z" fill="#000014"/><path d="M65.6984 70.3703c-2.7891 2.3867-8.3562 4.0133-14.768 4.0133-7.8671 0-14.4648-2.4508-16.214-5.7469-.625 1.8891-.7656 4.05-.7656 5.4328 0 0-.4118 6.7774 4.3031 11.4922 0-.5819.1146-1.1581.3373-1.6956.2227-.5376.5491-1.0261.9606-1.4375s.9-.7377 1.4376-.9603c.5376-.2226 1.1138-.3372 1.6957-.3371 4.1953 0 4.193 3.6586 4.1899 6.6313v.2625c0 4.5102 2.7554 8.3742 6.6742 10.0039-.604-1.2408-.9171-2.6029-.9156-3.9828 0-4.3031 2.5234-5.9024 5.4593-7.7641 2.3352-1.4797 4.9289-3.125 6.7141-6.4234.9635-1.7773 1.467-3.7674 1.4648-5.7891.0012-1.2553-.1923-2.5032-.5734-3.6992Z" fill="#FF5D01"/></svg>