<svg width="56" height="42" viewBox="0 0 56 42" fill="none" xmlns="http://www.w3.org/2000/svg">
<path fill-rule="evenodd" clip-rule="evenodd" d="M0 0H56V42H0V0Z" fill="#229E45"/>
<path fill-rule="evenodd" clip-rule="evenodd" d="M28.1226 38.15L54.5038 21.0263L27.9651 3.85001L1.49634 21.0613L28.1226 38.15Z" fill="#F8E509"/>
<path fill-rule="evenodd" clip-rule="evenodd" d="M39.6201 21C39.6201 27.1512 34.6238 32.1387 28.4551 32.1387C26.2507 32.1353 24.0968 31.4783 22.2657 30.2509C20.4346 29.0235 19.0086 27.2808 18.1678 25.2431C17.327 23.2053 17.1092 20.964 17.5421 18.8025C17.9749 16.6411 19.0388 14.6564 20.5994 13.0995C22.16 11.5426 24.1471 10.4833 26.3096 10.0556C28.4721 9.62789 30.7129 9.85091 32.7486 10.6965C34.7844 11.5421 36.5238 12.9722 37.7468 14.8062C38.9699 16.6402 39.6218 18.7956 39.6201 21Z" fill="#2B49A3"/>
<path fill-rule="evenodd" clip-rule="evenodd" d="M24.7887 27.6763L24.4387 27.475L24.0887 27.65L24.1675 27.2563L23.8875 26.9588L24.2812 26.915L24.4737 26.565L24.64 26.9325L25.025 27.0025L24.7362 27.265M32.2612 29.5663L31.92 29.365L31.57 29.54L31.64 29.1463L31.3687 28.8575L31.7625 28.8138L31.9462 28.455L32.1212 28.8225L32.5062 28.8925L32.2087 29.1638M29.0412 26.5388L28.7437 26.3638L28.4375 26.5213L28.5075 26.18L28.2625 25.9263L28.6125 25.8913L28.77 25.5763L28.91 25.9L29.2512 25.9613L28.9887 26.1975M36.6012 25.4538L36.3037 25.2788L35.9975 25.4363L36.0675 25.095L35.8312 24.85L36.1725 24.815L36.33 24.5088L36.47 24.8238L36.8025 24.885L36.5487 25.1125M28.91 23.1875L28.56 22.995L28.21 23.17L28.28 22.7675L28.0087 22.4788L28.4025 22.435L28.5862 22.0763L28.7612 22.4438L29.1462 22.5138L28.8487 22.7938M19.6962 19.7313L19.3462 19.5388L18.9962 19.7138L19.0837 19.3113L18.795 19.0225L19.1975 18.9788L19.3725 18.62L19.5475 18.9875L19.9325 19.0575L19.6437 19.3288M20.8075 24.3338L20.4575 24.1325L20.1075 24.3075L20.1862 23.9138L19.9062 23.625L20.3 23.5725L20.4837 23.2225L20.6587 23.59L21.0437 23.66L20.755 23.9313M32.305 18.0425L31.99 17.8675L31.675 18.025L31.745 17.675L31.5 17.4125L31.85 17.3688L32.0162 17.0538L32.165 17.3863L32.515 17.4475L32.2525 17.6838M31.6662 21.035L31.43 20.895L31.1762 21.0175L31.2287 20.7375L31.0362 20.5363L31.3162 20.5013L31.4475 20.2563L31.5612 20.5188L31.8237 20.5625L31.6312 20.755M19.1887 25.165L18.9525 25.0338L18.7162 25.1475L18.7687 24.885L18.585 24.6925L18.8475 24.6575L18.97 24.4213L19.0837 24.6663L19.3462 24.7188L19.145 24.8938M36.6625 26.2325L36.47 26.1363L36.2775 26.2238L36.3212 26.0225L36.1725 25.8825L36.3825 25.8563L36.4875 25.6813L36.575 25.8563L36.7937 25.9L36.6275 26.0313" fill="#FFFFEF"/>
<path fill-rule="evenodd" clip-rule="evenodd" d="M19.1887 25.165L18.9525 25.0338L18.7162 25.1475L18.7687 24.885L18.585 24.6925L18.8475 24.6575L18.97 24.4213L19.0837 24.6663L19.3462 24.7188L19.145 24.8938" fill="#FFFFEF"/>
<path fill-rule="evenodd" clip-rule="evenodd" d="M19.1887 25.165L18.9525 25.0338L18.7162 25.1475L18.7687 24.885L18.585 24.6925L18.8475 24.6575L18.97 24.4213L19.0837 24.6663L19.3462 24.7188L19.145 24.8938M22.8462 25.1563L22.6187 25.0338L22.3825 25.1475L22.435 24.885L22.2512 24.6925L22.5137 24.6575L22.6362 24.4213L22.75 24.6663L23.0125 24.71L22.8112 24.8938M22.3912 26.3813L22.1637 26.25L21.9275 26.3725L21.98 26.11L21.7962 25.9088L22.0587 25.8738L22.1812 25.6375L22.295 25.8825L22.5575 25.935L22.3562 26.11M30.0037 24.1675L29.7762 24.0275L29.5312 24.15L29.5837 23.8875L29.4087 23.6863L29.6712 23.66L29.7937 23.4238L29.8987 23.6688L30.1612 23.7125L29.9687 23.8963M27.7725 24.1588L27.5362 24.0275L27.3 24.15L27.3525 23.8875L27.1775 23.6863L27.44 23.66L27.5625 23.415L27.6675 23.6688L27.93 23.7125L27.7375 23.8963M21.7175 23.3888L21.5687 23.3013L21.42 23.3713L21.455 23.205L21.3412 23.0825L21.5075 23.065L21.5775 22.9163L21.6475 23.0738L21.8137 23.1L21.6912 23.2138M36.3737 27.1863L36.1462 27.055L35.91 27.1775L35.9625 26.915L35.7787 26.7138L36.0412 26.6788L36.1637 26.4425L36.2775 26.6875L36.54 26.74L36.3387 26.915M34.5187 27.44L34.3262 27.3175L34.125 27.4225L34.1687 27.195L34.02 27.0375L34.2387 27.0113L34.3437 26.81L34.4312 27.02L34.65 27.055L34.4837 27.2125M35.3937 27.4138L35.2187 27.3088L35.035 27.3963L35.07 27.195L34.93 27.0463L35.1312 27.02L35.2275 26.845L35.315 27.02L35.5162 27.0638L35.3675 27.2038M37.9137 25.2088L37.7387 25.1213L37.5637 25.2088L37.6075 25.0075L37.4675 24.8588L37.6687 24.8325L37.7562 24.6575L37.8437 24.8413L38.0275 24.8763L37.8875 25.0163M34.4925 28.6738L34.2737 28.5513L34.0375 28.6563L34.09 28.4113L33.915 28.2363L34.1775 28.21L34.2912 27.9913L34.3962 28.2188L34.6587 28.2625L34.4575 28.4288M34.51 29.6713L34.3 29.5488L34.09 29.6625L34.1425 29.4175L33.9762 29.2425L34.2125 29.2075L34.3175 28.9888L34.4137 29.2163L34.65 29.26L34.475 29.435M32.8125 27.4138L32.6462 27.3088L32.4712 27.3963L32.5062 27.2038L32.375 27.055L32.5675 27.0375L32.655 26.8625L32.7425 27.0375L32.935 27.0725L32.795 27.2125M31.2375 27.4138L31.0625 27.3088L30.8875 27.3963L30.9312 27.2038L30.7912 27.055L30.9925 27.0375L31.08 26.8625L31.1675 27.0375L31.3512 27.0725L31.2112 27.2125M28.5512 25.06L28.3762 24.9638L28.2012 25.0513L28.245 24.85L28.105 24.71L28.2975 24.6838L28.385 24.5088L28.4725 24.6838L28.665 24.7275L28.525 24.8588M28.8487 29.8463L28.7087 29.7675L28.5512 29.8463L28.5862 29.6713L28.4725 29.5488L28.6387 29.5313L28.7175 29.3825L28.7875 29.54L28.9537 29.5663L28.8312 29.68M24.7887 22.1025L24.4387 21.9013L24.0887 22.0763L24.1675 21.6825L23.8875 21.3938L24.2812 21.3413L24.4737 20.9913L24.64 21.3588L25.025 21.4288L24.7362 21.7" fill="#FFFFEF"/>
<path fill-rule="evenodd" clip-rule="evenodd" d="M38.8851 25.0075C39.1018 24.445 39.2716 23.8655 39.3926 23.275C33.4601 18.0687 26.8538 15.4 18.5063 15.9512C18.2036 16.537 17.9546 17.1491 17.7626 17.78C27.6501 16.835 34.9126 21.21 38.8851 25.0075Z" fill="white"/>
<path d="M36.225 22.085L36.4263 22.1987C36.3962 22.2582 36.387 22.3259 36.4 22.3912C36.4205 22.4546 36.4643 22.5077 36.5225 22.54C36.5838 22.5837 36.645 22.61 36.6975 22.6012C36.75 22.6012 36.785 22.575 36.8113 22.54C36.8265 22.5168 36.8328 22.4888 36.8288 22.4612C36.8216 22.4289 36.8066 22.3989 36.785 22.3737C36.7675 22.3475 36.7238 22.2862 36.6538 22.2162C36.5818 22.142 36.5279 22.0522 36.4963 21.9537C36.4744 21.8792 36.4801 21.7994 36.5122 21.7287C36.5444 21.6581 36.6008 21.6013 36.6713 21.5687C36.7349 21.5422 36.8053 21.5361 36.8725 21.5512C36.9548 21.5702 37.0322 21.6059 37.1 21.6562C37.2225 21.7437 37.3013 21.8312 37.3275 21.9362C37.3396 21.9854 37.3412 22.0365 37.3322 22.0862C37.3231 22.136 37.3036 22.1833 37.275 22.225L37.065 22.0937C37.0913 22.0412 37.1 21.9887 37.0825 21.945C37.0738 21.9012 37.0388 21.8575 36.9775 21.8225C36.9326 21.7863 36.8776 21.765 36.82 21.7612C36.8042 21.7607 36.7885 21.7645 36.7746 21.7722C36.7607 21.7799 36.7492 21.7912 36.7413 21.805C36.7238 21.8312 36.7238 21.8575 36.7325 21.8925C36.7413 21.9275 36.785 21.9975 36.8725 22.085C36.96 22.1725 37.0125 22.2512 37.0475 22.3037C37.0788 22.3611 37.0929 22.4262 37.0883 22.4913C37.0836 22.5565 37.0604 22.6189 37.0213 22.6712C36.9803 22.7307 36.9224 22.7765 36.855 22.8025C36.7894 22.8327 36.7161 22.8419 36.645 22.8287C36.5663 22.8112 36.4875 22.7762 36.4 22.715C36.2688 22.6275 36.19 22.5312 36.1638 22.4262C36.1353 22.3072 36.1541 22.1817 36.2163 22.0762L36.225 22.085ZM35.21 21.42L35.4288 21.5337C35.4017 21.5942 35.3955 21.6619 35.4113 21.7262C35.4337 21.7863 35.4772 21.8361 35.5338 21.8662C35.6038 21.91 35.6563 21.9275 35.7088 21.9187C35.7613 21.9187 35.7963 21.8925 35.8225 21.8487C35.8358 21.8279 35.8419 21.8034 35.84 21.7787C35.84 21.7525 35.8225 21.7175 35.7963 21.6912C35.7515 21.6371 35.7048 21.5846 35.6563 21.5337C35.56 21.4375 35.4988 21.3587 35.4813 21.2887C35.467 21.2437 35.4627 21.1961 35.4687 21.1492C35.4748 21.1024 35.491 21.0574 35.5163 21.0175C35.5495 20.9635 35.5983 20.9208 35.6563 20.895C35.7164 20.8673 35.7834 20.8581 35.8488 20.8687C35.9297 20.8824 36.0071 20.9121 36.0763 20.9562C36.2075 21.0437 36.2863 21.1312 36.3125 21.2275C36.3285 21.2767 36.3336 21.3287 36.3276 21.3801C36.3215 21.4314 36.3045 21.4809 36.2775 21.525L36.0588 21.4025C36.085 21.3412 36.0938 21.2975 36.0763 21.2537C36.0588 21.21 36.0238 21.1662 35.9625 21.1312C35.9141 21.0965 35.8559 21.0781 35.7963 21.0787C35.7819 21.0797 35.768 21.0842 35.7558 21.0918C35.7436 21.0995 35.7334 21.11 35.7263 21.1225C35.7088 21.1487 35.7088 21.175 35.7175 21.21C35.7263 21.245 35.7788 21.315 35.8663 21.4025C35.9538 21.49 36.015 21.56 36.0413 21.6125C36.0763 21.6674 36.095 21.7311 36.095 21.7962C36.095 21.8614 36.0763 21.9251 36.0413 21.98C36.0036 22.041 35.9488 22.0897 35.8838 22.12C35.8182 22.1502 35.7448 22.1594 35.6738 22.1462C35.5837 22.131 35.4975 22.0983 35.42 22.05C35.3069 21.9897 35.2198 21.8901 35.175 21.77C35.1412 21.6532 35.1538 21.5278 35.21 21.42ZM33.9675 21.0875L34.6063 20.0375L35.3763 20.5187L35.2713 20.6937L34.7113 20.3437L34.5713 20.58L35.0963 20.9037L34.9825 21.0787L34.4575 20.755L34.2825 21.0437L34.8688 21.3937L34.7638 21.5687L33.9763 21.0875H33.9675ZM32.1563 19.6L32.2525 19.425L32.725 19.6612L32.5063 20.0987C32.4363 20.1162 32.3488 20.125 32.2438 20.1162C32.143 20.1051 32.0451 20.0755 31.955 20.0287C31.8491 19.9772 31.7586 19.8987 31.6925 19.8012C31.6324 19.7107 31.6018 19.6037 31.605 19.495C31.6095 19.3819 31.6394 19.2712 31.6925 19.1712C31.7451 19.066 31.8233 18.9757 31.92 18.9087C32.0125 18.8448 32.1226 18.8112 32.235 18.8125C32.3225 18.8125 32.41 18.8387 32.515 18.9C32.655 18.9612 32.7425 19.0487 32.7863 19.145C32.8318 19.2405 32.8411 19.3493 32.8125 19.4512L32.5763 19.3812C32.5907 19.3226 32.5846 19.2608 32.5588 19.2062C32.5325 19.1537 32.4888 19.1187 32.4188 19.0837C32.378 19.0605 32.3327 19.0461 32.286 19.0416C32.2392 19.037 32.192 19.0425 32.1475 19.0575C32.06 19.0837 31.9813 19.1625 31.92 19.285C31.8588 19.4075 31.8325 19.5212 31.8588 19.6175C31.8709 19.6631 31.8928 19.7056 31.923 19.7419C31.9533 19.7781 31.9911 19.8074 32.0338 19.8275C32.0775 19.8537 32.13 19.8712 32.1825 19.8712C32.2347 19.8792 32.2878 19.8792 32.34 19.8712L32.41 19.7312L32.1563 19.6ZM24.2638 17.6487L24.4388 16.4237L24.8063 16.485L24.9025 17.3425L25.2438 16.555L25.6113 16.6075L25.4363 17.815L25.2 17.78L25.3488 16.8262L24.9638 17.745L24.7275 17.71L24.6313 16.7212L24.4913 17.6837L24.2638 17.6487ZM23.03 17.5L23.1438 16.275L24.045 16.3625L24.0275 16.5725L23.3713 16.5112L23.345 16.7737L23.9575 16.835L23.9313 17.045L23.3188 16.9837L23.2925 17.3162L23.975 17.3775L23.9575 17.5875L23.03 17.5Z" fill="#309E3A"/>
<path d="M18.9439 16.7388C18.9439 16.6075 18.9701 16.5113 19.0051 16.4238C19.0358 16.3615 19.0773 16.3052 19.1276 16.2575C19.1725 16.2122 19.2261 16.1765 19.2851 16.1525C19.3726 16.1263 19.4601 16.1088 19.5476 16.1088C19.7314 16.1088 19.8714 16.1788 19.9851 16.2838C20.0392 16.3507 20.0795 16.4277 20.1036 16.5103C20.1276 16.5929 20.1349 16.6795 20.1251 16.765C20.1251 16.9575 20.0639 17.115 19.9501 17.2288C19.8917 17.2828 19.8225 17.324 19.7471 17.3496C19.6718 17.3752 19.5919 17.3847 19.5126 17.3775C19.4344 17.3783 19.3568 17.3632 19.2846 17.3331C19.2124 17.303 19.1471 17.2586 19.0926 17.2025C18.9837 17.0736 18.9302 16.9069 18.9439 16.7388Z" fill="#309E3A"/>
<path d="M19.1975 16.7387C19.1975 16.87 19.2238 16.975 19.285 17.0537C19.3463 17.1237 19.425 17.1675 19.53 17.1675C19.5754 17.1707 19.621 17.1637 19.6634 17.147C19.7058 17.1304 19.7439 17.1045 19.775 17.0712C19.8363 17.0012 19.8625 16.8962 19.8713 16.7475C19.8713 16.6075 19.8538 16.5025 19.7838 16.4325C19.7553 16.3972 19.7193 16.3687 19.6784 16.349C19.6376 16.3294 19.5929 16.319 19.5475 16.3187C19.5015 16.3173 19.4557 16.3259 19.4134 16.344C19.371 16.3622 19.3332 16.3894 19.3025 16.4237C19.2325 16.4937 19.2063 16.5987 19.1975 16.7387Z" fill="#F7FFFF"/>
<path d="M20.3876 17.3688L20.4051 16.1438H20.9301C21.0613 16.1438 21.1488 16.1613 21.2101 16.1875C21.2713 16.205 21.3151 16.2488 21.3501 16.3013C21.3851 16.3538 21.4026 16.4238 21.4026 16.5025C21.4033 16.5867 21.372 16.668 21.3151 16.73C21.2504 16.7906 21.1671 16.8276 21.0788 16.835L21.2101 16.94C21.2451 16.975 21.2888 17.045 21.3413 17.1413L21.4901 17.3863H21.1926L21.0176 17.1063L20.8951 16.9313C20.8739 16.9072 20.8467 16.8891 20.8163 16.8788C20.7765 16.8672 20.7353 16.8613 20.6938 16.8613H20.6413V17.3688H20.3876Z" fill="#309E3A"/>
<path d="M20.65 16.6688H20.825C20.9475 16.6688 21.0263 16.6688 21.0525 16.6513C21.0788 16.6513 21.105 16.625 21.1225 16.6075C21.14 16.59 21.1488 16.5463 21.1488 16.52C21.1488 16.4675 21.14 16.4325 21.1138 16.415C21.0963 16.3888 21.0613 16.3713 21.0263 16.3625H20.8513L20.65 16.3538V16.66V16.6688Z" fill="white"/>
<path d="M21.7874 16.205L22.2424 16.2312C22.3387 16.2312 22.4174 16.24 22.4699 16.2575C22.5381 16.2822 22.5984 16.3245 22.6449 16.38C22.6953 16.4412 22.7312 16.513 22.7499 16.59C22.7762 16.6687 22.7849 16.765 22.7762 16.8787C22.7761 16.968 22.7613 17.0567 22.7324 17.1412C22.6974 17.2287 22.6449 17.2987 22.5837 17.3512C22.5327 17.3932 22.4729 17.4232 22.4087 17.4387C22.3562 17.4562 22.2774 17.4562 22.1899 17.4562L21.7262 17.43L21.7874 16.205Z" fill="#309E3A"/>
<path d="M22.0236 16.4237L21.9799 17.2375H22.3124C22.3561 17.2375 22.3911 17.22 22.4174 17.1937C22.4436 17.1675 22.4699 17.1325 22.4874 17.08C22.5049 17.0275 22.5224 16.9487 22.5224 16.8525L22.5136 16.6337C22.5011 16.5876 22.477 16.5454 22.4436 16.5112C22.4146 16.482 22.3784 16.4609 22.3386 16.45C22.2724 16.4353 22.2051 16.4265 22.1374 16.4237H22.0236Z" fill="white"/>
<path d="M27.79 18.3925L28.0788 17.2025L28.4638 17.29L28.7438 17.3775C28.805 17.4125 28.8575 17.465 28.8838 17.5438C28.9188 17.6138 28.9188 17.6925 28.9013 17.7888C28.8838 17.8588 28.8575 17.92 28.8138 17.9638C28.7817 18.0022 28.7415 18.0331 28.6962 18.0542C28.6508 18.0754 28.6013 18.0863 28.5513 18.0863C28.49 18.0863 28.4025 18.0688 28.2888 18.0425L28.14 17.9988L28.035 18.4538L27.79 18.3925Z" fill="#309E3A"/>
<path d="M28.2626 17.465L28.1926 17.7975L28.3239 17.8325C28.4114 17.85 28.4814 17.8675 28.5164 17.8587C28.5504 17.854 28.5822 17.8389 28.6072 17.8154C28.6323 17.7919 28.6495 17.7612 28.6564 17.7275C28.6564 17.6837 28.6564 17.6487 28.6389 17.6137C28.6197 17.5782 28.5888 17.5504 28.5514 17.535L28.3851 17.4912L28.2714 17.465H28.2626Z" fill="white"/>
<path d="M28.9275 18.7337L29.3387 17.5787L29.82 17.7537C29.9512 17.7975 30.03 17.8412 30.0825 17.8762C30.1262 17.92 30.1612 17.9637 30.17 18.0337C30.1787 18.1037 30.1875 18.165 30.17 18.235C30.135 18.3225 30.0825 18.3837 30.0125 18.4275C29.9425 18.4625 29.855 18.4712 29.75 18.4537C29.785 18.4975 29.82 18.5412 29.8375 18.5937L29.9075 18.83L29.96 19.1012L29.6887 19.005L29.6012 18.69C29.5853 18.6187 29.5649 18.5486 29.54 18.48C29.5284 18.4528 29.5104 18.4288 29.4875 18.41C29.47 18.3837 29.435 18.3662 29.3737 18.3487L29.33 18.3312L29.155 18.8212L28.9275 18.7337Z" fill="#309E3A"/>
<path d="M29.4 18.1475L29.5662 18.2088C29.68 18.2525 29.75 18.27 29.785 18.27C29.8112 18.27 29.8375 18.27 29.8637 18.2438C29.89 18.2263 29.9075 18.2 29.9162 18.165C29.9337 18.13 29.9337 18.095 29.9162 18.06C29.9033 18.0261 29.8784 17.9981 29.8462 17.9813L29.6712 17.92L29.4962 17.8588L29.3912 18.1475H29.4Z" fill="white"/>
<path d="M30.3626 18.69C30.3927 18.5875 30.4433 18.4923 30.5113 18.41C30.5556 18.3572 30.6089 18.3127 30.6688 18.2787C30.7231 18.2481 30.7823 18.2273 30.8438 18.2175C30.9313 18.2175 31.0188 18.2175 31.1151 18.2525C31.1933 18.2718 31.2665 18.3076 31.3298 18.3574C31.3932 18.4071 31.4453 18.4698 31.4826 18.5412C31.5526 18.6812 31.5526 18.8475 31.5001 19.04C31.4568 19.2053 31.3498 19.3469 31.2026 19.4337C31.0713 19.5125 30.9138 19.5212 30.7476 19.4687C30.6696 19.4489 30.5966 19.4129 30.5333 19.3632C30.47 19.3135 30.4178 19.251 30.3801 19.18C30.345 19.1035 30.3254 19.0208 30.3224 18.9367C30.3194 18.8526 30.3331 18.7688 30.3626 18.69Z" fill="#309E3A"/>
<path d="M30.6074 18.76C30.5724 18.8912 30.5636 19.005 30.6074 19.0925C30.6511 19.18 30.7124 19.2325 30.8086 19.2675C30.8961 19.2937 30.9836 19.285 31.0711 19.2325C31.1586 19.1887 31.2111 19.0925 31.2549 18.9525C31.2986 18.8212 31.2986 18.7162 31.2549 18.6287C31.2376 18.5872 31.2114 18.55 31.1781 18.5198C31.1449 18.4895 31.1053 18.467 31.0624 18.4537C31.0193 18.4389 30.9736 18.4335 30.9283 18.4381C30.8829 18.4426 30.8391 18.4569 30.7999 18.48C30.7124 18.5325 30.6511 18.62 30.6074 18.76Z" fill="white"/>
<path d="M32.7512 20.3962L33.3112 19.3112L33.775 19.5475C33.8624 19.5894 33.9422 19.6456 34.0112 19.7137C34.055 19.7575 34.0812 19.81 34.0812 19.88C34.0812 19.95 34.0812 20.0112 34.0462 20.0725C34.0126 20.1511 33.9499 20.2138 33.8712 20.2475C33.7837 20.265 33.6962 20.265 33.6 20.23C33.635 20.2825 33.6525 20.335 33.67 20.3787C33.6875 20.4312 33.6962 20.51 33.705 20.6237L33.7225 20.9037L33.46 20.7725L33.425 20.4487C33.4208 20.3753 33.4121 20.3023 33.3987 20.23C33.3928 20.1972 33.3776 20.1669 33.355 20.1425L33.25 20.0812L33.2062 20.055L32.97 20.51L32.7512 20.3962Z" fill="#309E3A"/>
<path d="M33.2938 19.88L33.4601 19.9675C33.5651 20.02 33.6351 20.055 33.6613 20.055C33.6876 20.055 33.7226 20.055 33.7488 20.0375C33.7751 20.0288 33.7926 20.0025 33.8101 19.9675C33.8276 19.9325 33.8363 19.8975 33.8276 19.8625C33.8168 19.8277 33.7954 19.7971 33.7663 19.775C33.7151 19.7436 33.6626 19.7144 33.6088 19.6875L33.4338 19.6L33.2938 19.88Z" fill="white"/>
<path d="M37.2837 22.6363C37.3404 22.5463 37.4148 22.4689 37.5025 22.4088C37.5614 22.3711 37.6266 22.3444 37.695 22.33C37.7585 22.317 37.824 22.317 37.8875 22.33C37.975 22.3475 38.0537 22.3825 38.1325 22.435C38.2006 22.4774 38.2591 22.5336 38.3043 22.5999C38.3495 22.6661 38.3804 22.7411 38.395 22.82C38.4212 22.9688 38.3775 23.135 38.2725 23.3013C38.1847 23.4459 38.0431 23.5497 37.8787 23.59C37.8004 23.6069 37.7194 23.6071 37.641 23.5905C37.5625 23.5739 37.4885 23.541 37.4238 23.4938C37.3557 23.4513 37.2971 23.3952 37.2519 23.3289C37.2067 23.2626 37.1759 23.1876 37.1613 23.1088C37.135 22.9513 37.1787 22.7938 37.2837 22.6363Z" fill="#309E3A"/>
<path d="M37.5025 22.7763C37.415 22.89 37.3887 22.995 37.4062 23.0913C37.4127 23.1356 37.4285 23.178 37.4526 23.2157C37.4768 23.2535 37.5087 23.2856 37.5462 23.31C37.6337 23.3713 37.7212 23.3888 37.8087 23.3625C37.8962 23.3363 37.9837 23.275 38.0625 23.1525C38.1412 23.03 38.1762 22.925 38.1587 22.8375C38.15 22.75 38.0975 22.6713 38.0187 22.61C37.94 22.5488 37.8437 22.54 37.7562 22.5663C37.6687 22.5838 37.5812 22.6538 37.4937 22.7763H37.5025Z" fill="white"/>
<path d="M26.4075 17.8938L26.6087 17.0363L27.2387 17.185L27.2125 17.325L26.7487 17.22L26.705 17.4125L27.1337 17.5088L27.0987 17.6575L26.67 17.5525L26.6175 17.7888L27.0987 17.9025L27.0637 18.0425L26.4075 17.8938Z" fill="#309E3A"/>
</svg>
