<svg xmlns="http://www.w3.org/2000/svg" width="60" height="60" fill="none"><g clip-path="url(#a)"><path fill="#0ACF83" d="M21.328 60.469c5.578 0 10.078-4.5 10.078-10.078V40.313H21.328c-5.578 0-10.078 4.5-10.078 10.078 0 5.578 4.5 10.078 10.078 10.078Z"/><path fill="#A259FF" d="M11.25 30.234c0-5.578 4.5-10.078 10.078-10.078h10.078v20.157H21.328c-5.578 0-10.078-4.5-10.078-10.079Z"/><path fill="#F24E1E" d="M11.25 10.078C11.25 4.5 15.75 0 21.328 0h10.078v20.156H21.328c-5.578 0-10.078-4.5-10.078-10.078Z"/><path fill="#FF7262" d="M31.406 0h10.078c5.578 0 10.078 4.5 10.078 10.078 0 5.578-4.5 10.078-10.078 10.078H31.406V0Z"/><path fill="#1ABCFE" d="M51.563 30.234c0 5.578-4.5 10.078-10.079 10.078-5.578 0-10.078-4.5-10.078-10.078 0-5.578 4.5-10.078 10.078-10.078 5.578 0 10.078 4.5 10.078 10.078Z"/></g><defs><clipPath id="a"><path fill="#fff" d="M0 0h60v60H0z"/></clipPath></defs></svg>