<svg xmlns="http://www.w3.org/2000/svg" width="60" height="60" fill="none"><g clip-path="url(#a)"><rect width="42.152" height="43.083" x="-.462" y="29.246" fill="#fff" rx="8" transform="rotate(-45 -.462 29.246)"/><path fill="#F34F29" d="M58.47 27.365 32.636 1.53a3.812 3.812 0 0 0-5.39 0l-5.364 5.365 6.806 6.806a4.525 4.525 0 0 1 5.73 5.768l6.56 6.56A4.532 4.532 0 0 1 44.19 34.5a4.535 4.535 0 0 1-5.93-5.915l-6.116-6.116v16.097c.443.218.848.508 1.199.857a4.536 4.536 0 0 1-6.412 6.414 4.536 4.536 0 0 1 1.484-7.403V22.187a4.534 4.534 0 0 1-2.461-5.947l-6.709-6.709L1.53 27.245a3.813 3.813 0 0 0 0 5.39l25.836 25.836a3.813 3.813 0 0 0 5.39 0l25.715-25.715a3.813 3.813 0 0 0 0-5.391Z"/></g><defs><clipPath id="a"><path fill="#fff" d="M0 0h60v60H0z"/></clipPath></defs></svg>