<svg width="128" height="128" fill="none" xmlns="http://www.w3.org/2000/svg"><path d="M64 88.08c13.299 0 24.08-10.78 24.08-24.08 0-13.299-10.781-24.08-24.08-24.08-13.3 0-24.08 10.781-24.08 24.08 0 13.3 10.78 24.08 24.08 24.08Z" fill="#176BFF"/><path d="M113.84 23.14a8.976 8.976 0 0 0-5.247-8.173 8.971 8.971 0 0 0-9.172 1.036 59.7 59.7 0 1 0 12.577 12.577 8.941 8.941 0 0 0 1.842-5.44ZM64 120.3a56.302 56.302 0 0 1-53.475-74.05 56.301 56.301 0 0 1 86.628-27.72 8.969 8.969 0 0 0 12.306 12.307 56.297 56.297 0 0 1-15.898 81.055A56.303 56.303 0 0 1 64 120.3Z" fill="#176BFF" stroke="#176BFF" stroke-width="1.4"/></svg>