<svg xmlns="http://www.w3.org/2000/svg" width="60" height="60" fill="none"><g clip-path="url(#a)"><path fill="#F0DB4F" d="M.66.66h58.68v58.68H.66V.66Z"/><path fill="#323330" d="M54.538 45.345c-.43-2.677-2.176-4.926-7.347-7.022-1.796-.826-3.798-1.417-4.395-2.778-.212-.792-.24-1.239-.106-1.718.385-1.556 2.242-2.042 3.715-1.595.948.318 1.846 1.048 2.387 2.214 2.532-1.64 2.527-1.629 4.295-2.756-.647-1.003-.993-1.466-1.416-1.896-1.523-1.7-3.598-2.577-6.917-2.51l-1.729.224c-1.656.418-3.235 1.288-4.16 2.454-2.779 3.151-1.987 8.668 1.394 10.938 3.33 2.5 8.221 3.068 8.846 5.405.608 2.861-2.102 3.788-4.797 3.458-1.986-.413-3.09-1.422-4.284-3.257-2.197 1.272-2.197 1.272-4.457 2.571.536 1.172 1.1 1.702 1.997 2.717 4.25 4.311 14.888 4.1 16.795-2.427.078-.224.592-1.718.179-4.022ZM32.56 27.63h-5.488l-.023 14.19c0 3.017.156 5.784-.334 6.632-.803 1.668-2.884 1.46-3.832 1.138-.966-.475-1.456-1.15-2.025-2.103-.156-.274-.273-.486-.313-.502l-4.462 2.733c.742 1.523 1.835 2.845 3.235 3.703 2.092 1.256 4.903 1.64 7.843.966 1.913-.558 3.564-1.712 4.428-3.47 1.25-2.303.982-5.092.97-8.176.029-5.032.001-10.063.001-15.111Z"/></g><defs><clipPath id="a"><path fill="#fff" d="M0 0h60v60H0z"/></clipPath></defs></svg>