<svg xmlns="http://www.w3.org/2000/svg" width="60" height="60" fill="none"><g clip-path="url(#a)"><path fill="#DD8AA2" d="M58.185 29.54c0-3.605-2.731-6.64-6.399-7.505L60 .053H19.294l8.232 22.051c-3.552.936-6.17 3.917-6.17 7.455 0 2.6 1.433 4.905 3.61 6.326a21.362 21.362 0 0 1-2.979 3.103c-2.12 1.804-4.471 3.19-7.01 4.11-2.293-1.405-3.286-3.884-2.389-6.104 3.496-.97 6.038-3.934 6.038-7.419 0-4.28-3.84-7.75-8.54-7.75-4.72 0-8.557 3.486-8.557 7.768 0 2.116.954 4.056 2.483 5.442-.134.244-.267.486-.401.746C2.33 38.174.879 40.878.324 43.913c-1.108 6.066.707 10.938 5.081 13.694a15.006 15.006 0 0 0 8.101 2.324c5.022 0 10.124-2.29 15.051-4.509 3.516-1.576 7.145-3.224 10.717-4.02 1.319-.296 2.694-.47 4.146-.66 2.94-.38 5.978-.78 8.71-2.219 3.19-1.68 5.367-4.49 5.999-7.714.476-2.48 0-4.975-1.224-7.16a7.196 7.196 0 0 0 1.28-4.108Zm-3.724 0c0 2.41-2.159 4.37-4.814 4.37-2.655 0-4.814-1.96-4.814-4.37 0-.78.23-1.525.63-2.166.152-.244.345-.485.535-.694.2-.214.425-.406.668-.571l.02-.018a9.58 9.58 0 0 1 .496-.312s.02 0 .02-.018c.076-.035.153-.086.23-.12.018 0 .036-.02.056-.02.078-.032.173-.067.267-.102.09-.031.18-.066.268-.104.019 0 .038-.019.057-.019.077-.015.153-.05.229-.067.02 0 .059-.018.077-.018.095-.017.172-.035.267-.052h.02l.286-.053c.02 0 .056 0 .076-.016.077 0 .153-.019.23-.019h.095c.095 0 .192-.016.306-.016h.248a.9.9 0 0 1 .21.016h.038c.154.02.306.035.46.07 2.177.416 3.84 2.185 3.84 4.3ZM24.622 3.52H54.67l-6.896 18.462a8.154 8.154 0 0 0-.859.225L39.657 8.773 32.378 22.12a7.59 7.59 0 0 0-.897-.19L24.622 3.52ZM38.28 28.03c-.362-1.63-1.28-3.085-2.578-4.16l3.955-7.245 3.992 7.4c-1.185 1.076-2.044 2.445-2.388 4.005H38.28Zm-9.57-2.737.268-.053h.057c.077-.017.154-.017.23-.035h.076c.077 0 .133-.017.21-.017h.746c.075 0 .133.017.19.017.039 0 .057 0 .095.018.077.017.134.017.211.035.018 0 .038 0 .076.017.096.018.191.034.268.052h.018c.077.017.154.033.23.068.02 0 .038.019.076.019.057.016.134.034.19.07.02 0 .039.015.059.015.075.036.152.054.23.089h.017a.967.967 0 0 1 .25.12h.018c.077.035.153.086.23.121.02 0 .02.019.037.019.077.033.134.085.21.12l.021.017c.229.156.44.33.648.503l.02.017c.19.19.381.399.535.624a4.08 4.08 0 0 1 .783 2.393c0 2.41-2.159 4.368-4.814 4.368-2.654 0-4.814-1.958-4.814-4.368-.02-2.029 1.528-3.744 3.63-4.23ZM9.914 25.17c2.656 0 4.814 1.96 4.814 4.369 0 2.41-2.158 4.368-4.814 4.368-2.655 0-4.814-1.959-4.814-4.368 0-2.41 2.16-4.37 4.814-4.37Zm44.433 15.031c-.42 2.218-1.93 4.16-4.146 5.321-2.082 1.093-4.642 1.44-7.335 1.786-1.47.19-3.018.399-4.508.728-3.973.885-7.793 2.619-11.499 4.281-4.737 2.133-9.209 4.144-13.352 4.144-2.159 0-4.089-.555-5.922-1.716-4.202-2.635-3.993-7.575-3.495-10.28.457-2.532 1.738-4.906 2.96-7.177.076-.14.134-.26.21-.4.42.14.86.244 1.318.314-.725 3.675 1.336 7.47 5.348 9.344l.727.346.782-.26c3.344-1.075 6.438-2.826 9.17-5.166 1.547-1.318 2.866-2.739 3.973-4.282.44.07.88.088 1.318.088 3.974 0 7.316-2.48 8.272-5.809h3.208c.956 3.346 4.299 5.808 8.272 5.808a9.105 9.105 0 0 0 4.316-1.074c.498 1.3.65 2.651.383 4.004Z"/></g><defs><clipPath id="a"><path fill="#fff" d="M0 0h60v60H0z"/></clipPath></defs></svg>