<svg width="128" height="128" viewBox="0 0 128 128" fill="none" xmlns="http://www.w3.org/2000/svg">
<g clip-path="url(#clip0_452_64)">
<path d="M107.96 0H20.0404C8.97239 0 0 8.97239 0 20.0404V107.96C0 119.028 8.97239 128 20.0404 128H107.96C119.028 128 128 119.028 128 107.96V20.0404C128 8.97239 119.028 0 107.96 0Z" fill="#0E1337"/>
<path d="M59.2253 86.3775C53.6963 93.1206 44.6253 95.6109 36.5269 92.611C28.4337 89.6056 23.04 81.7527 23.04 72.96C23.04 63.392 29.7081 57.2329 38.6023 49.0189C46.3625 41.8509 55.8184 33.1166 64 19.2C72.1817 33.1166 81.6375 41.8509 89.3927 49.0189C98.2868 57.2329 104.96 63.392 104.96 72.96C104.96 81.7527 99.5664 89.6056 91.4732 92.611C83.3748 95.6109 74.3038 93.1206 68.7748 86.3775C71.3859 92.4145 74.4805 98.2232 78.0331 103.74C79.3854 105.832 77.9134 108.8 75.4688 108.8H52.5312C50.0814 108.8 48.6094 105.832 49.967 103.74C53.5195 98.2232 56.6142 92.4145 59.2253 86.3775Z" fill="#A41B22"/>
</g>
<defs>
<clipPath id="clip0_452_64">
<rect width="128" height="128" fill="white"/>
</clipPath>
</defs>
</svg>
