<svg width="100" height="100" fill="none" xmlns="http://www.w3.org/2000/svg"><g clip-path="url(#a)"><path d="M98.0469 53.125c0 25.6726-20.8118 46.4844-46.4844 46.4844S5.07812 78.7976 5.07812 53.125 25.8899 6.64062 51.5625 6.64062c25.6726 0 46.4844 20.81178 46.4844 46.48438Z" fill="#000"/><path d="M50 0C22.4219 0 0 22.4219 0 50s22.4219 50 50 50c8.75 0 16.9531-2.2656 24.0625-6.1719l-36.25-50.625v28.5938H32.5V32.6562h5.3125L77.2656 91.875C90.9375 82.9687 100 67.5781 100 50c0-27.5781-22.4219-50-50-50Zm17.2656 66.0937-5.8594-8.8281V32.6562h5.8594v33.4375Z" fill="#fff"/></g><defs><clipPath id="a"><path fill="#fff" d="M0 0h100v100H0z"/></clipPath></defs></svg>