<svg width="100" height="100" fill="none" xmlns="http://www.w3.org/2000/svg"><g clip-path="url(#a)"><path d="M49.9917 100c-1.3375 0-2.6709-.35-3.8417-1.0292l-12.2333-7.2375c-1.825-1.0208-.9334-1.3833-.3334-1.5958 2.4375-.8458 2.9292-1.0417 5.5334-2.5167.2708-.1541.6291-.0958.9083.0709l9.4 5.5791c.3417.1875.8208.1875 1.1333 0l36.6459-21.15c.3416-.1958.5583-.5875.5583-.9916V28.8375c0-.4125-.2208-.8-.5708-1.0083L50.5625 6.69584c-.3375-.19584-.7875-.19584-1.1292 0L12.8125 27.8333c-.3542.2042-.5792.6042-.5792 1.0042v42.2917c0 .4041.225.7875.5792.9791l10.0375 5.8c5.4458 2.725 8.7833-.4833 8.7833-3.7083V32.4458c0-.5916.475-1.0541 1.0667-1.0541h4.6458c.5792 0 1.0625.4666 1.0625 1.0541V74.2c0 7.2708-3.9583 11.4375-10.85 11.4375-2.1166 0-3.7875 0-8.4416-2.2958l-9.61671-5.5292c-2.375-1.3708-3.84166-3.9375-3.84166-6.6833V28.8375c0-2.7458 1.47083-5.3125 3.84166-6.6792L46.1458.983337c2.3209-1.3125 5.4-1.3125 7.7 0L90.4875 22.1583c2.375 1.3709 3.85 3.9334 3.85 6.6792v42.2917c0 2.7458-1.475 5.3041-3.85 6.6833L53.8458 98.9708C52.6792 99.65 51.35 100 49.9917 100Zm29.5875-41.6958c0-7.9167-5.35-10.025-16.6125-11.5125-11.3792-1.5042-12.5375-2.2834-12.5375-4.9459 0-2.2.9791-5.1375 9.4083-5.1375 7.5292 0 10.3042 1.6209 11.4458 6.6959.1.4791.5375.8291 1.0292.8291h4.7542c.2958 0 .575-.1291.775-.3375.2-.225.3083-.5125.2791-.8166-.7375-8.7417-6.5458-12.8167-18.2833-12.8167-10.45 0-16.6833 4.4083-16.6833 11.8042 0 8.0208 6.2 10.2375 16.2291 11.2291 12 1.175 12.9292 2.9292 12.9292 5.2875 0 4.0959-3.2875 5.8417-11.0083 5.8417-9.6959 0-11.8292-2.4333-12.5459-7.2583-.0833-.5167-.525-.8959-1.0541-.8959h-4.7375c-.5875 0-1.0584.4667-1.0584 1.0542 0 6.175 3.3584 13.5333 19.3959 13.5333 11.6166.0042 18.275-4.5666 18.275-12.5541Z" fill="#393"/></g><defs><clipPath id="a"><path fill="#fff" d="M0 0h100v100H0z"/></clipPath></defs></svg>