<svg width="100" height="100" fill="none" xmlns="http://www.w3.org/2000/svg"><g clip-path="url(#a)"><path d="M51.9195.0109409c-.9009-.0594733-1.8009.1297041-2.6016.5468811-.8008.417177-1.4715 1.046318-1.939 1.818748L9.98044 63.3703c-.48728.7944-.74207 1.7094-.73544 2.6413.00663.9319.27441 1.8433.7729 2.6306l18.4125 29.0515c.5841.9157 1.4508 1.6157 2.4688 1.994 1.018.3783 2.1316.4143 3.1719.1021l53.1343-15.9429c.6825-.2043 1.3131-.5527 1.8493-1.0217.5362-.469.9654-1.0477 1.2587-1.6969.2933-.6491.4438-1.3537.4413-2.0661-.0024-.7123-.1578-1.4158-.4555-2.063L56.1429 2.89766c-.3714-.82181-.9616-1.52571-1.706-2.034809-.7444-.509097-1.6145-.8037997-2.5151-.8519101h-.0023ZM53.3218 18.7219c.3973-.0475.7992.0362 1.1445.2383.3452.2021.615.5116.768.8812l23.5625 54.5188c.105.2422.1574.504.1537.7681-.0036.264-.0632.5242-.1749.7635-.1116.2393-.2727.4522-.4727.6246-.1999.1725-.4342.3005-.6873.3758L40.9 87.8484c-.3085.0917-.6355.102-.9492.03-.3137-.072-.6034-.2238-.8412-.4407-.2377-.217-.4153-.4917-.5155-.7976-.1003-.3058-.1198-.6323-.0566-.9479l13.1484-65.4781c.0737-.3933.2737-.7519.5697-1.0212.2959-.2693.6717-.4347 1.0702-.471h-.004Z" fill="#8FABDA"/></g><defs><clipPath id="a"><path fill="#fff" d="M0 0h100v100H0z"/></clipPath></defs></svg>