<svg xmlns="http://www.w3.org/2000/svg" width="60" height="60" fill="none"><path fill="#61DAFB" d="M30 35.344a5.344 5.344 0 1 0 0-10.688 5.344 5.344 0 0 0 0 10.688Z"/><path fill="#61DAFB" d="M50.297 21.188a52.272 52.272 0 0 0-3.234-1.079c.28-1.125.515-2.25.703-3.328.984-6.187-.094-10.547-3.094-12.234-.89-.516-1.875-.75-3-.75-3.281 0-7.453 2.437-11.672 6.515-4.219-4.078-8.39-6.515-11.672-6.515-1.125 0-2.11.234-3 .75-3 1.734-4.078 6.094-3.094 12.234.188 1.078.422 2.203.704 3.328-1.126.328-2.204.657-3.235 1.078C3.843 23.438.656 26.532.656 30c0 3.469 3.235 6.563 9.047 8.813 1.031.374 2.11.75 3.235 1.078a46.985 46.985 0 0 0-.704 3.328c-.984 6.187.094 10.547 3.094 12.234.89.516 1.875.75 3 .75 3.328 0 7.5-2.437 11.672-6.516 4.219 4.079 8.39 6.516 11.672 6.516 1.125 0 2.11-.234 3-.75 3-1.734 4.078-6.094 3.094-12.234a47.041 47.041 0 0 0-.703-3.328c1.124-.328 2.203-.657 3.234-1.078 5.86-2.25 9.047-5.344 9.047-8.813 0-3.469-3.188-6.563-9.047-8.813ZM43.359 6.89c1.922 1.125 2.578 4.593 1.782 9.515-.141.985-.375 2.016-.657 3.094-2.437-.563-5.015-.938-7.734-1.172a67.642 67.642 0 0 0-4.875-6.094c3.469-3.421 6.984-5.765 9.844-5.765.61 0 1.172.14 1.64.422Zm-5.25 27.797c-.843 1.5-1.828 3-2.859 4.5-1.734.14-3.469.187-5.25.187-1.828 0-3.563-.047-5.25-.188-1.031-1.5-1.969-3-2.813-4.5A75.535 75.535 0 0 1 19.453 30a75.535 75.535 0 0 1 2.485-4.688c.843-1.5 1.828-3 2.859-4.5a64.722 64.722 0 0 1 5.25-.187c1.828 0 3.562.047 5.25.188 1.031 1.5 1.969 3 2.812 4.5A75.533 75.533 0 0 1 40.594 30c-.797 1.547-1.594 3.094-2.485 4.688ZM42 33.14c.703 1.64 1.266 3.234 1.781 4.828-1.593.375-3.281.656-5.062.89.562-.89 1.172-1.828 1.687-2.812.563-.984 1.078-1.969 1.594-2.906ZM30 45.844a52.721 52.721 0 0 1-3.234-3.89c1.078.046 2.156.093 3.234.093 1.078 0 2.156-.047 3.234-.094A52.721 52.721 0 0 1 30 45.843Zm-8.719-7.032c-1.781-.234-3.468-.515-5.062-.89.515-1.547 1.078-3.188 1.781-4.828.516.937 1.031 1.922 1.594 2.86.562 1.03 1.125 1.921 1.687 2.858ZM18 26.86c-.703-1.64-1.266-3.234-1.781-4.828 1.593-.375 3.281-.656 5.062-.89-.562.89-1.172 1.828-1.687 2.812-.563.985-1.078 1.969-1.594 2.906Zm12-12.703a52.699 52.699 0 0 1 3.234 3.89c-1.078-.046-2.156-.093-3.234-.093-1.078 0-2.156.047-3.234.094A52.699 52.699 0 0 1 30 14.157ZM40.406 24l-1.687-2.813c1.781.235 3.468.516 5.062.891-.515 1.547-1.078 3.188-1.781 4.828-.516-.984-1.031-1.968-1.594-2.906ZM14.86 16.406c-.796-4.922-.14-8.39 1.782-9.515.468-.282 1.03-.422 1.64-.422 2.813 0 6.328 2.297 9.844 5.765-1.64 1.782-3.281 3.844-4.875 6.094a63.738 63.738 0 0 0-7.734 1.172c-.282-1.078-.47-2.11-.657-3.094ZM3.281 30c0-2.203 2.672-4.547 7.36-6.281a28.097 28.097 0 0 1 3-.985 68.33 68.33 0 0 0 2.812 7.313c-1.125 2.484-2.11 4.922-2.812 7.265C7.17 35.438 3.28 32.626 3.28 30Zm13.36 23.11c-1.922-1.126-2.578-4.594-1.782-9.516.141-.985.375-2.016.657-3.094 2.437.563 5.015.938 7.734 1.172a67.624 67.624 0 0 0 4.875 6.094c-3.469 3.422-6.984 5.765-9.844 5.765-.61 0-1.172-.14-1.64-.422Zm28.5-9.516c.797 4.922.14 8.39-1.782 9.515-.468.282-1.03.422-1.64.422-2.813 0-6.328-2.297-9.844-5.765 1.64-1.782 3.281-3.844 4.875-6.094a63.741 63.741 0 0 0 7.734-1.172c.282 1.078.47 2.11.657 3.094Zm4.218-7.313c-.937.375-1.968.703-3 .985a68.33 68.33 0 0 0-2.812-7.313c1.125-2.484 2.11-4.922 2.812-7.265 6.47 1.875 10.36 4.687 10.36 7.312 0 2.203-2.719 4.547-7.36 6.281Z"/></svg>