<svg width="128" height="128" fill="none" xmlns="http://www.w3.org/2000/svg"><g clip-path="url(#a)"><path d="m17 53 11.5-14 15-19L95 25.5l13-2.5 8.5-11 3 8 6 21.5c1.5 28 0 19-1.5 39.5-1.2 16.4-19.833 27.5-29 31l-21.5 7.5h-30c-3.6667-1-11.4564-2.993-14.6564-2.993-3.2 0-9-5.667-11.5-8.5L15 101V82.5l-2-12 2-7.5 2-10Z" fill="#fff"/><path d="M116.452 6.643c-1.793 4.3007-4.088 8.3743-6.837 12.136C97.569 6.7399 81.2358-.0239324 64.205-.026001 28.984-.026001 6e-8 28.982 6e-8 64.242-.00037447 72.9491 1.7672 81.5655 5.19561 89.5692c3.4284 8.0037 8.44619 15.2278 14.74939 21.2348l2.368 2.1c11.5729 9.757 26.2206 15.113 41.358 15.122 33.487 0 61.637-26.24 64.021-59.683 1.751-16.371-3.051-37.077-11.24-61.7ZM29.067 111.17c-.5155.635-1.1662 1.147-1.9047 1.499-.7386.352-1.5463.535-2.3643.535-3.018 0-5.487-2.484-5.487-5.502 0-3.017 2.485-5.501 5.487-5.501 1.25 0 2.485.433 3.452 1.234 2.351 1.9 2.718 5.384.817 7.735Zm87.119-19.238c-15.843 21.122-49.68 14.003-71.376 15.02 0 0-3.852.234-7.721.867 0 0 1.45-.617 3.335-1.334 15.226-5.301 22.43-6.335 31.685-11.086 17.427-8.869 34.654-28.274 38.24-48.463-6.637 19.422-26.75 36.11-45.077 42.895-12.557 4.635-35.238 9.136-35.238 9.136l-.917-.484c-15.442-7.518-15.91-40.977 12.157-51.78 12.291-4.735 24.048-2.134 37.323-5.302 14.175-3.367 30.568-14.004 37.238-27.874 7.471 22.19 16.461 56.932.351 78.405Z" fill="#77BC1F"/></g><defs><clipPath id="a"><path fill="#fff" d="M0 0h128v128H0z"/></clipPath></defs></svg>