<svg xmlns="http://www.w3.org/2000/svg" width="60" height="60" fill="none"><g clip-path="url(#a)"><path fill="#38B2AC" d="M30.002 12c-8 0-12.999 4-15 12C18 20 21.502 18.5 25.5 19.5c2.283.57 3.915 2.226 5.722 4.06 2.94 2.985 6.345 6.44 13.779 6.44 8 0 12.998-3.999 15-12.001-3 4.001-6.5 5.5-10.5 4.501-2.283-.57-3.912-2.225-5.722-4.06C40.841 15.457 37.438 12 30.002 12Zm-15 18c-8 0-12.999 3.999-15 12C3 38 6.502 36.5 10.5 37.5c2.283.57 3.915 2.225 5.722 4.06 2.94 2.984 6.345 6.439 13.779 6.439 8 0 12.998-3.998 15-11.998-3 3.998-6.5 5.498-10.5 4.498-2.283-.569-3.912-2.225-5.722-4.06C25.841 33.456 22.438 30 15.002 30Z"/></g><defs><clipPath id="a"><path fill="#fff" d="M0 0h60v60H0z"/></clipPath></defs></svg>