<svg xmlns="http://www.w3.org/2000/svg" width="60" height="60" fill="none"><g clip-path="url(#a)"><path fill="#fff" d="M10.627 22.031h46.72v34.533h-46.72V22.031Z"/><path fill="#007ACC" d="M.703 29.958v29.297h58.594V.66H.703v29.297Zm47.217-2.344a7.293 7.293 0 0 1 3.666 2.11 9.647 9.647 0 0 1 1.406 1.874c0 .076-2.531 1.786-4.073 2.743-.056.037-.281-.207-.53-.577a3.325 3.325 0 0 0-2.752-1.655c-1.776-.122-2.92.811-2.91 2.344-.015.382.072.76.253 1.097.389.81 1.115 1.294 3.393 2.278 4.196 1.805 5.991 2.995 7.107 4.688 1.247 1.875 1.523 4.903.68 7.143-.938 2.438-3.235 4.093-6.483 4.641-1.484.17-2.983.154-4.463-.047a10.78 10.78 0 0 1-5.962-3.108c-.54-.595-1.59-2.147-1.524-2.26a4.38 4.38 0 0 1 .54-.341l2.17-1.2 1.682-.975.352.52a7.866 7.866 0 0 0 2.222 2.128c1.875.985 4.434.849 5.7-.29a2.545 2.545 0 0 0 .323-3.244c-.469-.652-1.406-1.2-4.026-2.344-3.024-1.303-4.327-2.11-5.518-3.394a7.726 7.726 0 0 1-1.607-2.93 11.72 11.72 0 0 1-.104-3.75c.624-2.92 2.813-4.959 6.01-5.563 1.48-.184 2.98-.142 4.448.121v-.009ZM34.167 30.07v2.4H26.56v21.67h-5.395V32.467h-7.627v-2.344a23.025 23.025 0 0 1 .057-2.424c.037-.042 4.687-.042 10.312-.042H34.14l.028 2.414Z"/></g><defs><clipPath id="a"><path fill="#fff" d="M0 0h60v60H0z"/></clipPath></defs></svg>