<svg width="56" height="42" viewBox="0 0 56 42" fill="none" xmlns="http://www.w3.org/2000/svg">
<path fill-rule="evenodd" clip-rule="evenodd" d="M0 0H56V3.2375H0V0ZM0 6.46625H56V9.70375H0V6.46625ZM0 12.9237H56V16.1612H0V12.9237ZM0 19.3813H56V22.6187H0V19.3813ZM0 25.8562H56V29.0762H0V25.8562ZM0 32.305H56V35.5425H0V32.305ZM0 38.7625H56V42H0V38.7625Z" fill="#BD3D44"/>
<path fill-rule="evenodd" clip-rule="evenodd" d="M0 3.5H56V6.68025H0V3.5ZM0 9.8605H56V13.0408H0V9.8605ZM0 16.221H56V19.4099H0V16.221ZM0 22.5901H56V25.779H0V22.5901ZM0 28.9506H56V32.1395H0V28.9506ZM0 35.3111H56V38.5H0V35.3111Z" fill="white"/>
<path fill-rule="evenodd" clip-rule="evenodd" d="M0 0H29.1725V21H0V0Z" fill="#192F5D"/>
<path fill-rule="evenodd" clip-rule="evenodd" d="M2.43102 0.893616L2.70292 1.73037H3.55058L2.86285 2.24217L3.12675 3.07892L2.43102 2.55899L1.74329 3.07079L1.99919 2.24217L1.30347 1.73037H2.17512L2.43102 0.893616ZM7.29311 0.893616L7.55701 1.73037H8.42067L7.72494 2.24217L7.98084 3.07892L7.29311 2.55899L6.59739 3.07079L6.86128 2.24217L6.17355 1.73037H7.02122L7.29311 0.893616ZM12.1552 0.893616L12.4191 1.73037H13.2748L12.587 2.24217L12.8509 3.07892L12.1552 2.55899L11.4595 3.07079L11.7234 2.24217L11.0276 1.73037H11.8913L12.1552 0.893616ZM17.0173 0.893616L17.2812 1.73037H18.1448L17.4491 2.24217L17.713 3.07892L17.0173 2.55899L16.3216 3.07079L16.5935 2.24217L15.8897 1.73037H16.7454L17.0173 0.893616ZM21.8794 0.893616L22.1433 1.73037H22.9989L22.3112 2.24217L22.5751 3.07892L21.8794 2.55899L21.1837 3.07079L21.4475 2.24217L20.7598 1.73037H21.6155L21.8794 0.893616ZM26.7415 0.893616L27.0054 1.73037H27.869L27.1653 2.24217L27.4372 3.07892L26.7415 2.55899L26.0457 3.07079L26.3176 2.24217L25.6139 1.73037H26.4776L26.7415 0.893616ZM4.86207 3.0058L5.12596 3.83443H5.99762L5.3019 4.3381L5.5578 5.17485L4.87806 4.66306L4.18234 5.17485L4.43024 4.3381L3.7585 3.83443H4.61417L4.86207 3.0058ZM9.72416 3.0058L9.99605 3.83443H10.8517L10.148 4.3381L10.4199 5.17485L9.72416 4.66306L9.02843 5.17485L9.29233 4.3381L8.5966 3.83443H9.46026L9.72416 3.0058ZM14.5862 3.0058L14.8501 3.83443H15.7138L15.0181 4.3381L15.282 5.17485L14.5862 4.66306L13.8905 5.17485L14.1544 4.3381L13.4667 3.83443H14.3144L14.5862 3.0058ZM19.4483 3.0058L19.7202 3.83443H20.5759L19.8722 4.3381L20.1441 5.17485L19.4483 4.66306L18.7606 5.17485L19.0165 4.3381L18.3208 3.83443H19.1924L19.4483 3.0058ZM24.3104 3.0058L24.5743 3.83443H25.438L24.7423 4.3381L25.0062 5.17485L24.3104 4.66306L23.6147 5.17485L23.8786 4.3381L23.1909 3.83443H24.0465L24.3104 3.0058ZM2.43102 5.08549L2.70292 5.93037H3.55058L2.86285 6.44217L3.12675 7.27079L2.43102 6.75899L1.74329 7.27079L1.99919 6.44217L1.30347 5.93037H2.17512L2.43102 5.08549ZM7.29311 5.08549L7.55701 5.93037H8.42067L7.72494 6.44217L7.98084 7.27079L7.29311 6.75899L6.59739 7.27079L6.86128 6.43404L6.17355 5.92224H7.02122L7.29311 5.08549ZM12.1552 5.08549L12.4191 5.92224H13.2748L12.587 6.43404L12.8509 7.26267L12.1552 6.75087L11.4595 7.26267L11.7234 6.42592L11.0276 5.91412H11.8913L12.1552 5.08549ZM17.0173 5.08549L17.2812 5.92224H18.1448L17.4491 6.43404L17.713 7.26267L17.0173 6.75087L16.3216 7.26267L16.5935 6.42592L15.8897 5.91412H16.7454L17.0173 5.08549ZM21.8794 5.08549L22.1433 5.92224H22.9989L22.3112 6.43404L22.5751 7.26267L21.8794 6.75087L21.1837 7.26267L21.4475 6.42592L20.7598 5.91412H21.6155L21.8794 5.08549ZM26.7415 5.08549L27.0054 5.92224H27.869L27.1653 6.43404L27.4372 7.26267L26.7415 6.75087L26.0457 7.26267L26.3176 6.42592L25.6139 5.91412H26.4776L26.7415 5.08549ZM4.86207 7.19768L5.12596 8.02631H5.99762L5.3019 8.5381L5.56579 9.37486L4.87007 8.85493L4.17434 9.36673L4.43823 8.5381L3.75051 8.02631H4.60617L4.86207 7.19768ZM9.72416 7.19768L9.99605 8.02631H10.8517L10.148 8.5381L10.4199 9.37486L9.72416 8.85493L9.02843 9.36673L9.29233 8.5381L8.5966 8.02631H9.46026L9.72416 7.19768ZM14.5862 7.19768L14.8501 8.02631H15.7138L15.0181 8.5381L15.282 9.37486L14.5862 8.85493L13.8905 9.36673L14.1544 8.5381L13.4667 8.02631H14.3144L14.5862 7.19768ZM19.4483 7.19768L19.7202 8.02631H20.5759L19.8802 8.5381L20.1441 9.37486L19.4483 8.85493L18.7606 9.36673L19.0165 8.5381L18.3208 8.02631H19.1924L19.4483 7.19768ZM24.3104 7.19768L24.5743 8.02631H25.438L24.7423 8.5381L25.0062 9.37486L24.3104 8.85493L23.6147 9.36673L23.8786 8.5381L23.1909 8.02631H24.0465L24.3104 7.19768ZM2.43102 9.30174L2.70292 10.1304H3.55058L2.86285 10.6422L3.12675 11.4789L2.43102 10.959L1.74329 11.4708L1.99919 10.6422L1.30347 10.1304H2.17512L2.43102 9.30174ZM7.29311 9.30174L7.55701 10.1304H8.42067L7.72494 10.6422L7.98084 11.4708L7.29311 10.959L6.59739 11.4708L6.86128 10.6422L6.17355 10.1304H7.02122L7.29311 9.30174ZM12.1552 9.30174L12.4191 10.1304H13.2748L12.587 10.6422L12.8509 11.4789L12.1552 10.959L11.4595 11.4708L11.7234 10.6422L11.0276 10.1304H11.8913L12.1552 9.30174ZM17.0173 9.30174L17.2812 10.1304H18.1448L17.4491 10.6422L17.713 11.4789L17.0173 10.959L16.3216 11.4708L16.5935 10.6422L15.8897 10.1304H16.7454L17.0173 9.30174ZM21.8794 9.30174L22.1433 10.1304H22.9989L22.3112 10.6422L22.5751 11.4789L21.8794 10.959L21.1837 11.4708L21.4475 10.6422L20.7598 10.1304H21.6155L21.8794 9.30174ZM26.7415 9.30174L27.0054 10.1304H27.869L27.1653 10.6422L27.4372 11.4789L26.7415 10.959L26.0457 11.4708L26.3096 10.6422L25.6059 10.1304H26.4696L26.7415 9.30174ZM4.86207 11.3977L5.12596 12.2344H5.99762L5.3019 12.7381L5.56579 13.5749L4.87007 13.0549L4.17434 13.5749L4.43823 12.7381L3.75051 12.2263H4.60617L4.86207 11.3977ZM9.72416 11.3977L9.99605 12.2344H10.8517L10.148 12.7381L10.4199 13.5749L9.72416 13.0549L9.02843 13.5749L9.29233 12.7381L8.5966 12.2263H9.46026L9.72416 11.3977ZM14.5862 11.3977L14.8501 12.2344H15.7138L15.0181 12.7381L15.282 13.5749L14.5862 13.0549L13.8905 13.5749L14.1544 12.7381L13.4667 12.2263H14.3144L14.5862 11.3977ZM19.4483 11.3977L19.7202 12.2344H20.5759L19.8802 12.7381L20.1441 13.5749L19.4483 13.0549L18.7606 13.5749L19.0165 12.7381L18.3208 12.2263H19.1924L19.4483 11.3977ZM24.3104 11.3977L24.5743 12.2344H25.438L24.7423 12.7381L25.0062 13.5749L24.3104 13.0549L23.6147 13.5749L23.8786 12.7381L23.1909 12.2263H24.0465L24.3104 11.3977ZM2.43102 13.4936L2.70292 14.3304H3.55058L2.86285 14.8422L3.12675 15.6627L2.43102 15.159L1.74329 15.6627L1.99919 14.834L1.30347 14.3222H2.17512L2.43102 13.4936ZM7.29311 13.4936L7.55701 14.3304H8.42067L7.72494 14.8422L7.98884 15.6627L7.29311 15.159L6.59739 15.6627L6.86928 14.834L6.17355 14.3222H7.02122L7.29311 13.4936ZM12.1552 13.4936L12.4191 14.3304H13.2748L12.587 14.8422L12.8509 15.6627L12.1552 15.159L11.4595 15.6627L11.7234 14.834L11.0276 14.3222H11.8913L12.1552 13.4936ZM17.0173 13.4936L17.2812 14.3304H18.1448L17.4491 14.8422L17.713 15.6627L17.0173 15.159L16.3216 15.6627L16.5935 14.834L15.8897 14.3222H16.7454L17.0173 13.4936ZM21.8794 13.4936L22.1433 14.3304H22.9989L22.3112 14.8422L22.5751 15.6627L21.8794 15.159L21.1837 15.6627L21.4475 14.834L20.7598 14.3222H21.6155L21.8794 13.4936ZM26.7415 13.4936L27.0054 14.3304H27.869L27.1653 14.8422L27.4372 15.6627L26.7415 15.159L26.0457 15.6627L26.3176 14.834L25.6139 14.3222H26.4776L26.7415 13.4936ZM4.86207 15.5977L5.12596 16.4263H5.99762L5.3019 16.9381L5.56579 17.7749L4.87007 17.2549L4.17434 17.7667L4.43823 16.9381L3.75051 16.4263H4.60617L4.86207 15.5977ZM9.72416 15.5977L9.99605 16.4263H10.8517L10.148 16.9381L10.4199 17.7749L9.72416 17.2549L9.02843 17.7667L9.29233 16.9381L8.5966 16.4263H9.46026L9.72416 15.5977ZM14.5862 15.5977L14.8501 16.4263H15.7138L15.0181 16.9381L15.282 17.7749L14.5862 17.2549L13.8905 17.7667L14.1544 16.9381L13.4667 16.4263H14.3144L14.5862 15.5977ZM19.4483 15.5977L19.7202 16.4263H20.5759L19.8802 16.9381L20.1441 17.7749L19.4483 17.2549L18.7606 17.7667L19.0165 16.9381L18.3208 16.4263H19.1924L19.4483 15.5977ZM24.3104 15.5977L24.5743 16.4263H25.438L24.7423 16.9381L25.0062 17.7749L24.3104 17.2549L23.6147 17.7667L23.8786 16.9381L23.1909 16.4263H24.0465L24.3104 15.5977ZM2.43102 17.7017L2.70292 18.5304H3.55058L2.86285 19.0422L3.12675 19.8708L2.43102 19.359L1.74329 19.8708L1.99919 19.034L1.30347 18.5222H2.17512L2.43102 17.7017ZM7.29311 17.7017L7.55701 18.5304H8.42067L7.72494 19.0422L7.98884 19.8708L7.29311 19.359L6.59739 19.8708L6.86928 19.034L6.17355 18.5222H7.02122L7.29311 17.7017ZM12.1552 17.7017L12.4191 18.5304H13.2748L12.603 19.0422L12.8669 19.8708L12.1712 19.359L11.4755 19.8708L11.7394 19.034L11.0436 18.5222H11.9073L12.1552 17.7017ZM17.0173 17.7017L17.2812 18.5304H18.1448L17.4491 19.0422L17.713 19.8708L17.0173 19.359L16.3216 19.8708L16.5935 19.034L15.8897 18.5222H16.7454L17.0173 17.7017ZM21.8794 17.7017L22.1433 18.5304H22.9989L22.3112 19.0422L22.5751 19.8708L21.8794 19.359L21.1837 19.8708L21.4475 19.034L20.7598 18.5222H21.6155L21.8794 17.7017ZM26.7415 17.7017L27.0054 18.5304H27.869L27.1653 19.0422L27.4372 19.8708L26.7415 19.359L26.0457 19.8708L26.3176 19.034L25.6139 18.5222H26.4776L26.7415 17.7017Z" fill="white"/>
</svg>
