<svg width="128" height="128" fill="none" xmlns="http://www.w3.org/2000/svg"><g clip-path="url(#a)"><circle cx="64" cy="64" r="64" fill="#0E1337"/><path d="M59.822 81.9007c-4.8378 5.7799-12.7749 7.9144-19.861 5.343C32.8794 84.6677 28.16 77.9366 28.16 70.4c0-8.2011 5.8345-13.4804 13.6169-20.5209C48.5672 43.7351 56.841 36.2485 64 24.32c7.1589 11.9285 15.4328 19.4151 22.2185 25.5591C94.0009 56.9196 99.84 62.1989 99.84 70.4c0 7.5366-4.7195 14.2677-11.801 16.8437-7.0861 2.5714-15.0232.4369-19.8611-5.343 2.2847 5.1746 4.9925 10.1535 8.101 14.8821 1.1832 1.7932-.1048 4.3372-2.2437 4.3372H53.9648c-2.1436 0-3.4316-2.544-2.2437-4.3372 3.1084-4.7286 5.8162-9.7075 8.1009-14.8821Z" fill="#A41B22"/></g><defs><clipPath id="a"><path fill="#fff" d="M0 0h128v128H0z"/></clipPath></defs></svg>